<?xml version="1.0" standalone="no"?>
<!DOCTYPE svg PUBLIC "-//W3C//DTD SVG 20010904//EN"
 "http://www.w3.org/TR/2001/REC-SVG-20010904/DTD/svg10.dtd">
<svg version="1.0" xmlns="http://www.w3.org/2000/svg"
 width="1000.000000pt" height="707.000000pt" viewBox="0 0 1000.000000 707.000000"
 preserveAspectRatio="xMidYMid meet">

<g transform="translate(0.000000,707.000000) scale(0.100000,-0.100000)"
fill="#000000" stroke="none">
<path d="M0 3535 l0 -3535 5000 0 5000 0 0 3535 0 3535 -5000 0 -5000 0 0
-3535z m4767 2950 c72 -36 106 -89 111 -171 3 -48 8 -65 21 -68 196 -58 546
-145 549 -137 16 47 99 100 156 101 42 0 112 -36 137 -71 11 -16 23 -44 26
-63 5 -34 7 -35 62 -41 31 -3 63 -7 71 -8 8 -1 26 22 43 57 71 140 249 167
355 53 50 -55 66 -104 59 -176 l-6 -57 76 -38 76 -37 26 24 c62 58 125 70 197
38 64 -29 89 -72 90 -156 l1 -70 240 -137 240 -138 37 35 c52 48 131 71 194
55 110 -27 176 -107 176 -216 0 -53 -5 -71 -32 -114 l-32 -52 62 -78 c62 -78
62 -78 89 -64 60 30 145 10 192 -45 67 -80 53 -190 -31 -246 l-38 -25 36 -143
37 -142 39 -5 c76 -11 124 -67 124 -147 0 -85 -92 -157 -172 -136 l-38 10 -66
-103 -66 -104 26 -30 c74 -89 17 -232 -103 -256 -42 -9 -114 19 -145 56 l-24
30 -85 -32 -84 -31 5 -48 c19 -204 -245 -311 -377 -153 -17 22 -37 58 -43 82
l-10 42 -180 -2 -180 -3 -13 -38 c-18 -52 -49 -83 -103 -104 -38 -14 -51 -15
-91 -4 -25 7 -60 26 -78 44 l-33 31 -229 -114 -228 -113 5 -43 c10 -92 -28
-163 -109 -205 -105 -53 -251 19 -273 135 l-6 34 -138 6 c-75 4 -178 9 -228
12 l-91 6 -6 -30 c-8 -42 -68 -99 -117 -112 -52 -14 -109 1 -153 40 l-33 28
-214 -117 -215 -118 3 -45 c4 -48 -16 -108 -46 -142 -22 -24 -90 -56 -122 -56
-24 0 -88 27 -121 51 -13 10 -61 -19 -272 -160 -250 -167 -256 -172 -247 -197
50 -131 -92 -265 -223 -210 -71 29 -117 121 -97 195 18 70 65 112 140 126 l35
6 47 297 c26 163 43 298 38 300 -57 20 -120 106 -120 163 0 25 -4 27 -127 57
-116 28 -129 29 -138 15 -25 -41 -83 -97 -112 -110 -70 -29 -164 -12 -221 41
-82 74 -83 221 -3 295 l30 28 -60 111 -60 110 -34 -9 c-77 -21 -172 37 -194
119 -14 49 -2 105 30 146 12 16 17 31 12 39 -4 7 -55 79 -112 159 l-103 146
-34 -14 c-77 -32 -176 -6 -232 61 -87 106 -51 255 77 320 33 16 125 18 161 2
11 -5 45 43 138 199 l122 206 -25 29 c-54 65 -53 154 2 220 52 62 130 75 205
35 l44 -23 255 208 c140 115 254 212 254 216 -1 5 -7 27 -14 51 -16 49 -5 101
31 147 25 32 91 64 132 65 38 0 113 -36 127 -61 5 -10 14 -19 18 -19 5 0 83
34 174 76 l165 76 -5 38 c-8 55 13 105 59 144 73 63 167 57 232 -14 20 -22 36
-47 36 -56 0 -9 6 -14 13 -11 8 3 91 18 185 33 129 21 172 32 172 42 0 37 27
97 59 133 63 70 152 86 238 44z m-1087 -5246 l0 -100 26 20 c39 31 113 29 152
-4 39 -33 52 -92 52 -240 l0 -115 -55 0 -55 0 0 134 c0 109 -3 138 -16 150
-18 18 -56 21 -85 6 -17 -10 -19 -23 -19 -150 l0 -140 -52 0 -53 0 0 270 0
270 53 0 52 0 0 -101z m410 61 l0 -40 -50 0 -50 0 0 40 0 40 50 0 50 0 0 -40z
m2890 9 c0 -26 -3 -30 -22 -27 -17 2 -24 11 -26 31 -3 23 0 27 22 27 22 0 26
-4 26 -31z m-4631 -16 c5 -10 35 -94 67 -187 32 -93 59 -165 62 -160 2 5 31
88 65 184 l62 175 68 3 67 3 0 -256 0 -255 -50 0 -50 0 -2 168 -3 167 -60
-165 -60 -165 -39 0 -39 0 -57 157 c-31 87 -58 160 -61 162 -2 2 -2 -70 -1
-160 l4 -164 -56 0 -56 0 0 255 0 255 65 0 c51 0 66 -4 74 -17z m2849 -226 l2
-237 130 0 c109 0 130 -2 130 -15 0 -13 -24 -15 -155 -15 l-155 0 0 248 c0
137 3 252 7 256 4 4 14 5 23 4 13 -3 15 -36 18 -241z m-2133 97 c60 -28 69
-54 72 -194 2 -69 5 -135 8 -147 5 -22 2 -23 -50 -23 -48 0 -55 2 -55 20 0 26
-6 25 -42 -5 -35 -29 -93 -33 -138 -10 -38 20 -50 43 -50 97 0 80 51 118 160
118 60 0 60 0 60 30 0 56 -74 78 -100 29 -8 -15 -22 -19 -61 -19 -51 0 -51 0
-44 28 14 59 68 91 153 92 30 0 69 -7 87 -16z m392 -5 c37 -23 63 -65 63 -104
0 -23 -3 -25 -45 -25 -42 0 -46 2 -59 35 -12 28 -20 35 -44 35 -50 0 -65 -20
-70 -94 -5 -74 10 -122 40 -132 32 -10 68 5 78 31 8 22 16 25 55 25 41 0 45
-2 45 -24 0 -29 -41 -81 -81 -101 -40 -21 -105 -19 -155 6 -123 59 -124 292
-2 352 48 24 133 22 175 -4z m633 -169 l0 -190 -50 0 -50 0 0 190 0 190 50 0
50 0 0 -190z m180 164 l0 -26 31 26 c23 20 42 26 78 26 99 0 121 -43 121 -240
l0 -140 -50 0 -50 0 0 123 c0 78 -5 131 -13 147 -15 31 -58 38 -93 15 -23 -15
-24 -18 -24 -150 l0 -135 -50 0 -50 0 0 190 0 190 50 0 c47 0 50 -1 50 -26z
m566 -4 c36 -34 54 -80 54 -140 l0 -50 -110 0 c-104 0 -110 -1 -110 -20 0 -12
11 -32 25 -45 28 -29 77 -33 129 -11 33 14 33 14 50 -21 l16 -34 -37 -16 c-21
-9 -65 -18 -98 -20 -121 -8 -195 65 -195 191 0 76 30 141 80 174 30 20 45 23
102 20 54 -3 72 -8 94 -28z m922 10 c39 -24 62 -73 62 -130 l0 -40 -130 0
-130 0 0 -25 c0 -39 25 -89 55 -113 35 -28 97 -29 148 -3 20 10 37 17 37 16 0
-2 3 -10 6 -19 8 -22 -65 -56 -121 -56 -68 0 -121 34 -155 99 -17 34 -15 162
3 197 17 32 63 78 87 87 36 13 106 6 138 -13z m362 5 c50 -26 58 -56 62 -218
3 -147 3 -147 -19 -147 -18 0 -23 6 -23 25 0 14 -4 25 -10 25 -5 0 -10 -4 -10
-10 0 -5 -19 -19 -42 -31 -110 -56 -234 28 -186 127 25 53 71 74 160 74 91 0
100 8 77 74 -11 34 -21 43 -51 53 -51 17 -107 -1 -126 -39 -13 -27 -52 -40
-52 -18 0 24 32 70 58 84 35 20 125 20 162 1z m211 -20 c5 -25 7 -27 14 -12
17 40 130 68 123 30 -2 -12 -16 -20 -43 -24 -26 -4 -48 -17 -67 -38 -28 -31
-28 -33 -28 -166 0 -128 -1 -135 -20 -135 -19 0 -20 7 -20 191 0 176 1 190 17
187 11 -2 20 -16 24 -33z m239 3 l0 -32 30 29 c24 23 41 30 89 33 54 4 61 2
92 -26 l34 -30 3 -161 c3 -157 3 -161 -17 -161 -20 0 -21 5 -21 129 0 182 -14
211 -100 211 -33 0 -48 -6 -71 -29 l-29 -29 0 -141 0 -141 -25 0 -25 0 0 183
c0 101 3 187 7 190 17 17 33 5 33 -25z m410 -158 l0 -190 -25 0 -25 0 0 183
c0 101 3 187 7 190 3 4 15 7 25 7 17 0 18 -12 18 -190z m150 158 l0 -32 30 29
c24 23 41 30 89 33 54 4 61 2 92 -26 l34 -30 3 -161 c3 -157 3 -161 -17 -161
-20 0 -21 5 -21 129 0 182 -14 211 -100 211 -33 0 -48 -6 -71 -29 l-29 -29 0
-141 0 -141 -25 0 -25 0 0 183 c0 101 3 187 7 190 17 17 33 5 33 -25z m573 8
l36 -25 3 22 c2 12 11 23 21 25 16 3 17 -12 17 -215 0 -198 -2 -221 -20 -250
-30 -51 -64 -67 -134 -66 -75 1 -118 16 -110 38 5 11 15 14 38 10 17 -3 44 -7
60 -10 36 -5 91 17 105 44 6 11 14 41 18 66 l6 46 -39 -26 c-33 -23 -47 -26
-92 -23 -91 8 -136 72 -135 194 1 81 17 127 59 164 46 40 113 42 167 6z"/>
<path d="M4271 6231 l-154 -26 -12 -48 c-7 -26 -21 -58 -33 -70 l-20 -22 109
-148 c99 -133 113 -148 132 -141 12 4 54 8 93 8 61 1 76 -3 111 -27 105 -73
118 -227 25 -308 -21 -19 -47 -39 -57 -45 -19 -10 -19 -13 3 -110 42 -181 39
-174 75 -174 46 0 108 -39 134 -85 18 -31 23 -53 21 -95 l-2 -55 287 -148 287
-149 31 31 c17 18 44 38 60 46 15 9 26 21 24 28 -2 6 -16 63 -30 125 -26 107
-28 112 -53 112 -14 0 -45 10 -70 21 -115 56 -129 207 -25 286 31 24 46 28 98
28 52 0 67 -4 98 -28 48 -36 67 -75 67 -132 0 -62 -25 -111 -72 -142 -25 -17
-37 -31 -34 -42 3 -9 17 -66 31 -127 25 -106 27 -111 50 -106 43 8 121 -26
163 -73 59 -63 75 -132 48 -208 l-14 -38 191 -125 191 -126 39 23 c22 12 57
22 77 22 48 0 105 -34 122 -73 7 -17 17 -30 21 -30 12 0 804 99 850 106 32 5
37 9 37 33 0 36 36 89 79 118 47 32 125 32 172 0 107 -72 107 -212 0 -284 -47
-32 -125 -32 -172 0 -29 19 -70 68 -81 96 -2 4 -202 -17 -445 -47 l-441 -55
-6 -30 c-3 -16 -15 -42 -27 -58 l-21 -29 68 -110 c57 -92 71 -107 85 -99 26
13 85 11 122 -5 40 -16 86 -69 94 -107 l6 -29 182 0 182 0 12 41 c19 63 83
126 147 145 33 9 67 13 91 8 55 -9 118 -48 142 -88 l22 -34 82 33 82 33 6 55
c11 102 75 154 179 144 l56 -5 62 98 62 98 -25 48 c-14 26 -25 58 -25 71 0 39
26 88 61 116 l34 26 -36 143 c-23 94 -40 142 -48 140 -26 -6 -93 20 -126 49
-18 16 -39 46 -46 66 l-12 36 -426 -6 c-234 -4 -443 -7 -463 -7 -28 0 -38 -4
-38 -15 0 -37 -42 -95 -85 -121 -39 -22 -54 -26 -101 -22 -83 7 -136 55 -159
144 l-12 48 -244 49 c-193 39 -244 46 -248 35 -2 -7 -23 -32 -45 -55 -150
-151 -376 65 -239 228 92 109 275 56 290 -84 l5 -42 248 -51 248 -50 16 33 16
34 -101 108 -102 109 -45 -20 c-146 -65 -288 99 -207 238 28 47 90 84 143 84
121 0 202 -125 153 -236 l-21 -47 87 -91 c48 -50 94 -99 103 -109 15 -16 18
-16 55 3 44 22 73 25 127 10 44 -13 106 -78 115 -122 l6 -31 151 7 c83 3 291
6 462 7 l312 0 6 30 c3 17 14 43 25 57 l19 27 -60 75 c-33 41 -66 74 -72 73
-6 -1 -32 -9 -58 -19 -61 -21 -120 -13 -181 26 -82 52 -117 143 -95 250 l8 35
-242 138 -241 139 -20 -21 -20 -20 100 -168 101 -168 69 0 c61 0 74 -4 106
-28 48 -36 69 -79 69 -138 0 -170 -228 -227 -311 -79 -32 57 -26 133 13 185
15 19 26 39 24 43 -2 5 -47 83 -101 174 l-98 165 -39 -10 c-109 -30 -212 68
-198 187 4 33 3 34 -77 74 l-81 40 -27 -33 c-76 -96 -243 -100 -329 -9 -31 34
-58 93 -58 128 0 28 -8 31 -96 40 l-51 5 -17 -39 c-18 -42 -55 -74 -106 -91
l-30 -11 0 -101 0 -102 60 -28 c47 -22 65 -37 86 -73 31 -53 36 -131 11 -179
-49 -95 -173 -136 -262 -87 -51 27 -105 112 -105 164 0 80 65 168 139 188 l41
11 0 103 0 103 -45 17 c-41 16 -74 46 -100 90 -9 16 -26 14 -227 -24 l-217
-42 -6 -39 c-21 -122 -155 -184 -259 -119 -108 66 -97 239 18 291 23 10 55 19
71 19 47 0 117 -40 144 -82 13 -21 29 -38 35 -37 6 0 105 19 220 42 194 39
209 44 213 65 1 12 1 22 -2 22 -2 0 -131 34 -286 76 -154 41 -282 74 -283 72
-1 -2 -12 -17 -24 -35 -28 -40 -114 -83 -166 -83 -78 1 -175 69 -192 135 -8
31 -12 31 -213 -4z"/>
<path d="M3614 6023 l-162 -76 5 -37 c6 -44 -10 -98 -36 -127 -19 -20 -19 -21
21 -77 33 -47 44 -56 62 -50 86 28 147 21 209 -22 47 -34 78 -87 84 -148 14
-122 -97 -234 -221 -224 l-46 3 -40 -103 c-22 -57 -40 -105 -40 -109 0 -3 11
-14 24 -24 14 -11 32 -39 41 -63 28 -73 -4 -142 -89 -191 -16 -9 -17 -19 -6
-115 18 -171 17 -170 46 -170 53 0 116 -44 146 -104 20 -39 22 -128 4 -167 -5
-12 25 -38 135 -115 219 -152 196 -140 222 -116 45 42 127 55 190 28 41 -17
93 -76 102 -115 l7 -31 74 0 c60 0 74 3 74 15 0 24 35 87 62 112 90 84 248 62
305 -44 11 -21 24 -32 33 -30 8 2 83 23 165 46 l151 43 1 38 c4 103 95 174
201 156 105 -17 164 -140 115 -243 -18 -39 -71 -78 -120 -88 -62 -13 -147 29
-179 88 -10 17 -18 16 -140 -18 -210 -58 -194 -51 -194 -96 0 -21 2 -39 4 -39
2 0 176 -47 387 -105 218 -59 385 -100 387 -94 9 24 59 73 89 85 71 30 160 5
204 -57 33 -47 38 -126 10 -176 -77 -135 -271 -112 -311 39 -6 22 -9 46 -6 53
3 10 -11 19 -47 29 -160 46 -729 197 -731 194 -1 -2 -12 -20 -25 -40 -26 -44
-108 -88 -163 -88 -46 0 -104 22 -136 53 -27 25 -62 88 -62 112 0 12 -14 15
-74 15 l-74 0 -7 -31 c-9 -39 -61 -98 -102 -115 -41 -18 -105 -18 -146 0 -38
15 -94 76 -103 111 -7 27 -1 111 9 135 4 11 -38 46 -161 130 l-167 116 -42
-30 c-82 -57 -192 -43 -256 33 l-25 30 -300 -131 c-300 -132 -301 -132 -295
-160 9 -45 -6 -96 -38 -133 l-31 -35 58 -107 c31 -60 57 -109 58 -110 1 -1 22
3 48 9 103 24 212 -46 238 -150 6 -29 10 -59 7 -66 -5 -11 24 -22 121 -45 143
-35 152 -36 152 -19 0 7 13 26 29 43 l28 30 -69 127 -69 126 -34 -9 c-110 -31
-229 93 -196 203 23 76 88 128 161 128 145 0 223 -167 129 -275 l-31 -34 67
-125 67 -124 57 5 c209 16 250 -277 45 -328 -38 -10 -44 -15 -49 -43 -32 -176
-90 -566 -85 -566 4 0 24 -12 45 -26 21 -14 43 -23 49 -21 6 3 122 79 257 170
l246 166 -10 39 c-16 60 -1 110 47 158 66 66 154 72 220 14 19 -17 37 -30 40
-30 4 0 102 52 219 116 l213 117 -4 52 c-16 200 258 258 323 69 l13 -39 74 -6
c41 -4 143 -8 227 -10 l153 -4 13 38 c26 75 100 127 180 127 58 0 102 -18 144
-60 l33 -33 226 112 227 112 -3 48 c-4 49 12 96 46 133 13 16 9 27 -51 125
l-65 107 -53 -2 c-98 -4 -156 56 -146 151 l4 49 -189 124 -189 124 -33 -25
c-99 -75 -210 -72 -291 10 -56 56 -80 144 -56 208 9 23 1 28 -282 175 l-291
151 -37 -33 c-43 -40 -102 -53 -154 -36 -20 7 -39 10 -41 7 -3 -3 -59 -81
-123 -173 l-118 -168 23 -34 c88 -130 -29 -301 -178 -261 -54 14 -115 75 -124
124 -21 113 61 210 171 202 28 -2 57 -6 65 -10 11 -5 47 40 137 168 l122 175
-24 36 c-50 74 -41 158 24 217 21 19 43 36 49 38 7 3 -1 52 -22 139 l-32 135
-53 7 c-134 16 -217 153 -166 276 9 20 25 46 35 57 19 20 18 22 -91 169 -87
116 -113 146 -127 141 -66 -27 -141 -13 -187 35 -16 17 -34 30 -39 29 -6 0
-84 -34 -172 -76z"/>
<path d="M2908 5557 l-256 -212 14 -27 c18 -35 18 -101 0 -137 -15 -28 -74
-85 -95 -92 -7 -3 4 -78 32 -224 l42 -219 44 -8 c141 -24 190 -199 82 -291
-126 -106 -314 12 -272 171 11 38 69 103 102 114 11 4 7 37 -20 179 -56 293
-45 263 -97 275 -42 10 -47 9 -59 -10 -7 -12 -63 -104 -124 -205 l-110 -185
34 -37 c69 -76 71 -186 6 -262 l-28 -32 111 -157 c80 -113 115 -156 126 -151
8 3 36 8 61 10 52 6 117 -21 143 -59 l16 -22 52 22 c29 12 163 71 298 130
l245 109 -3 50 c-6 83 39 156 118 192 l36 16 -14 137 -14 136 -33 6 c-95 18
-146 137 -92 216 34 51 70 73 120 74 l45 1 40 103 40 103 -47 47 c-87 87 -92
204 -13 288 l20 21 -40 57 c-30 42 -45 55 -57 51 -45 -19 -90 -17 -137 6 -27
13 -51 24 -54 25 -3 2 -120 -93 -262 -209z"/>
<path d="M2927 942 c-32 -35 -14 -72 33 -72 39 0 70 26 70 61 0 28 -2 29 -43
29 -30 0 -49 -6 -60 -18z"/>
<path d="M4686 1078 c-28 -40 -21 -48 44 -48 65 0 72 8 44 48 -10 14 -26 22
-44 22 -18 0 -34 -8 -44 -22z"/>
<path d="M5640 1137 c-26 -9 -41 -23 -57 -56 -12 -24 -20 -48 -17 -52 3 -5 50
-9 105 -9 113 0 120 5 95 64 -11 26 -26 41 -50 51 -20 8 -37 15 -38 14 -2 0
-19 -5 -38 -12z"/>
<path d="M5969 957 c-66 -44 -42 -127 37 -127 75 0 134 52 134 119 l0 31 -69
0 c-54 0 -75 -5 -102 -23z"/>
<path d="M7567 1122 c-64 -70 -62 -230 4 -276 27 -19 81 -21 112 -5 47 24 57
48 57 145 0 88 -1 93 -29 123 -25 27 -36 31 -78 31 -35 0 -55 -5 -66 -18z"/>
</g>
</svg>
